<?xml version="1.0" encoding="iso-8859-1"?>
<!-- Uploaded to: SVG Repo, www.svgrepo.com, Generator: SVG Repo Mixer Tools -->
<svg version="1.1" id="Layer_1" xmlns="http://www.w3.org/2000/svg" xmlns:xlink="http://www.w3.org/1999/xlink" 
	 viewBox="0 0 511.982 511.982" xml:space="preserve">
<rect x="101.371" y="32.001" style="fill:#F4BE8E;" width="21.328" height="447.98"/>
<polygon style="fill:#E6E9ED;" points="421.363,149.323 387.238,170.666 369.553,170.666 336.037,149.323 336.037,42.67 
	421.363,42.67 "/>
<path style="fill:#FFCE54;" d="M386.238,24.452c-4.155-4.156-10.921-4.156-15.077,0c-2.093,2.094-3.124,4.812-3.124,7.547l0,0
	v394.283h21.326V32.03C389.379,29.296,388.332,26.546,386.238,24.452z"/>
<path style="fill:#A85D5D;" d="M272.039,215.992c0,0,20.5-29.858,19.406-52.482c-4-83.169-107.668-88.497-159.557-152.839h-30.515
	c-4.156,64.467,138.823,93.419,141.964,146.448c1.438,24.421-13.984,53.857-13.984,53.857v90.028c0,0,15.421,29.437,13.984,53.857
	c-3.141,53.029-146.12,81.982-141.964,146.449h30.515c51.889-64.342,155.557-69.67,159.557-152.84
	c1.094-22.623-19.406-52.482-19.406-52.482V215.992z"/>
<g>
	<path style="fill:#965353;" d="M136.982,511.982H91.374l-0.641-9.983c-1.219-18.828,7.312-36.391,26.077-53.687
		c15.156-13.999,35.155-26.218,54.467-38.046c29.64-18.124,60.279-36.873,61.42-56.045c1.031-17.593-8.875-40.795-12.796-48.264
		l-1.219-2.328v-95.277l1.219-2.328c0.141-0.266,14.031-27.171,12.796-48.265c-1.141-19.171-31.78-37.92-61.42-56.045
		c-19.312-11.827-39.311-24.046-54.467-38.045C98.045,46.373,89.514,28.811,90.733,9.983L91.374,0h45.608l3.203,3.969
		c19.312,23.952,46.983,39.576,73.732,54.686c21.671,12.233,42.124,23.796,58.294,39.42c18.891,18.266,28.672,39.499,29.891,64.92
		c1.062,21.968-13.797,47.436-19.406,56.201v73.591c5.609,8.766,20.469,34.233,19.406,56.201c-1.219,25.422-11,46.655-29.891,64.92
		c-16.171,15.625-36.623,27.188-58.294,39.421c-26.749,15.108-54.42,30.733-73.732,54.686L136.982,511.982z M112.998,490.655h13.906
		c21.484-24.812,49.436-40.608,76.513-55.904c20.453-11.547,39.764-22.453,53.967-36.187c15.015-14.515,22.452-30.593,23.405-50.592
		c0.75-15.547-12.421-38.437-17.546-45.952l-1.875-2.719v-3.312v-83.31l1.875-2.718c5.125-7.516,18.296-30.405,17.546-45.952
		c-0.953-19.999-8.391-36.077-23.405-50.592c-14.203-13.734-33.514-24.64-53.967-36.187c-27.077-15.296-55.029-31.093-76.513-55.904
		h-13.906c6.141,23.468,38.249,43.108,69.419,62.186c35.89,21.968,69.779,42.701,71.576,72.981
		c1.359,23.031-10.109,48.968-13.969,56.982v85.028c3.859,8.016,15.328,33.952,13.969,56.982
		c-1.797,30.281-35.687,51.014-71.576,72.982C151.247,447.547,119.138,467.186,112.998,490.655z"/>
	<rect x="229.101" y="202.661" style="fill:#965353;" width="40.44" height="21.327"/>
	<rect x="229.101" y="245.321" style="fill:#965353;" width="40.44" height="21.344"/>
	<rect x="230.021" y="287.991" style="fill:#965353;" width="40.44" height="21.327"/>
</g>
<path style="fill:#ED5564;" d="M391.41,412.001c-4.484,0-8.812,1.031-12.718,2.984c-3.891-1.953-8.219-2.984-12.702-2.984
	c-15.703,0-28.469,12.766-28.469,28.469c0,25.717,32.141,45.217,35.812,47.357l5.375,3.125l5.375-3.125
	c3.655-2.141,35.796-21.641,35.796-47.357C419.879,424.782,407.113,412.001,391.41,412.001z"/>
</svg>